ffmpeg started on 2026-04-09 at 14:59:47
Report written to "D:\Convert\FFMetrics\reports\psnr_report-6.txt"
Log level: 32
Command line:
ffmpeg -hide_banner -nostdin -r 24000/1001 -i "F:\\Convert\\files\\[DC] Make Heroine ga Oosugiru - 07_Telegram_HEVC(313).mkv" -r 24000/1001 -i "F:\\Convert\\files\\[DC] Make Heroine ga Oosugiru - 07_Telegram.mp4" -lavfi "[0:v]settb=AVTB,setpts=PTS-STARTPTS,format=pix_fmts=yuv420p10le,fps=24000/1001,scale=1920:1080:flags=lanczos:param0=3:out_range=limited:out_color_matrix=bt709:out_chroma_loc=left,setsar=1/1,setdar=(1920/1080)*(1/1),colorspace=format=yuv420p10:range=tv:primaries=bt709:trc=bt709:space=bt709:fast=0[main];[1:v]settb=AVTB,setpts=PTS-STARTPTS,format=pix_fmts=yuv420p,fps=24000/1001,scale=1920:1080:flags=lanczos:param0=3:out_range=limited:out_color_matrix=bt709:out_chroma_loc=left,setsar=1/1,setdar=(1920/1080)*(1/1),colorspace=format=yuv420p:range=tv:primaries=bt709:trc=bt709:space=bt709:fast=0[ref];[main][ref]psnr=eof_action=endall:stats_file='D\\:/Convert/FFMetrics/logs/psnr_logfile-6.txt'" -f null -
Input #0, matroska,webm, from 'F:\Convert\files\[DC] Make Heroine ga Oosugiru - 07_Telegram_HEVC(313).mkv':
  Metadata:
    COMPATIBLE_BRANDS: isomiso2avc1mp41
    MAJOR_BRAND     : isom
    MINOR_VERSION   : 512
    ENCODER         : Lavf61.7.100
  Duration: 00:24:06.79, start: -0.021000, bitrate: 943 kb/s
  Stream #0:0: Video: hevc (Main 10), yuv420p10le(tv, bt709, progressive), 1920x1080 [SAR 1:1 DAR 16:9], 23.98 fps, 23.98 tbr, 1k tbn (default)
      Metadata:
        HANDLER_NAME    : VideoHandler
        VENDOR_ID       : [0][0][0][0]
        ENCODER         : Lavc61.19.100 libx265
        BPS             : 746320
        DURATION        : 00:24:06.569708333
        NUMBER_OF_FRAMES: 34683
        NUMBER_OF_BYTES : 134950471
        _STATISTICS_WRITING_APP: mkvpropedit v94.0 ('Initiate') 64-bit
        _STATISTICS_WRITING_DATE_UTC: 2026-04-09 08:52:37
        _STATISTICS_TAGS: BPS DURATION NUMBER_OF_FRAMES NUMBER_OF_BYTES
  Stream #0:1: Audio: aac (LC), 48000 Hz, stereo, fltp (default)
      Metadata:
        HANDLER_NAME    : SoundHandler
        VENDOR_ID       : [0][0][0][0]
        ENCODER         : Lavc61.19.100 aac
        BPS             : 193194
        DURATION        : 00:24:06.784000000
        NUMBER_OF_FRAMES: 67819
        NUMBER_OF_BYTES : 34938755
        _STATISTICS_WRITING_APP: mkvpropedit v94.0 ('Initiate') 64-bit
        _STATISTICS_WRITING_DATE_UTC: 2026-04-09 08:52:37
        _STATISTICS_TAGS: BPS DURATION NUMBER_OF_FRAMES NUMBER_OF_BYTES
Input #1, mov,mp4,m4a,3gp,3g2,mj2, from 'F:\Convert\files\[DC] Make Heroine ga Oosugiru - 07_Telegram.mp4':
  Metadata:
    major_brand     : isom
    minor_version   : 512
    compatible_brands: isomiso2avc1mp41
    encoder         : Lavf60.16.100
  Duration: 00:24:06.74, start: 0.000000, bitrate: 3764 kb/s
  Stream #1:0[0x1](und): Video: h264 (High) (avc1 / 0x31637661), yuv420p(tv, bt709, progressive), 1920x1080 [SAR 1:1 DAR 16:9], 3616 kb/s, 23.98 fps, 23.98 tbr, 24k tbn (default)
      Metadata:
        handler_name    : VideoHandler
        vendor_id       : [0][0][0][0]
        encoder         : Lavc60.31.102 h264_qsv
  Stream #1:1[0x2](und): Audio: aac (HE-AACv2) (mp4a / 0x6134706D), 48000 Hz, stereo, fltp, 144 kb/s (default)
      Metadata:
        handler_name    : SoundHandler
        vendor_id       : [0][0][0][0]
Stream mapping:
  Stream #0:0 (hevc) -> settb:default
  Stream #1:0 (h264) -> settb:default
  psnr:default -> Stream #0:0 (wrapped_avframe)
  Stream #0:1 -> #0:1 (aac (native) -> pcm_s16le (native))
Output #0, null, to 'pipe:':
  Metadata:
    COMPATIBLE_BRANDS: isomiso2avc1mp41
    MAJOR_BRAND     : isom
    MINOR_VERSION   : 512
    encoder         : Lavf61.7.100
  Stream #0:0: Video: wrapped_avframe, yuv420p10le(tv, bt709, progressive), 1920x1080 [SAR 1:1 DAR 16:9], q=2-31, 200 kb/s, 23.98 fps, 23.98 tbn
      Metadata:
        encoder         : Lavc61.19.100 wrapped_avframe
  Stream #0:1: Audio: pcm_s16le, 48000 Hz, stereo, s16, 1536 kb/s (default)
      Metadata:
        HANDLER_NAME    : SoundHandler
        VENDOR_ID       : [0][0][0][0]
        _STATISTICS_TAGS: BPS DURATION NUMBER_OF_FRAMES NUMBER_OF_BYTES
        BPS             : 193194
        DURATION        : 00:24:06.784000000
        NUMBER_OF_FRAMES: 67819
        NUMBER_OF_BYTES : 34938755
        _STATISTICS_WRITING_APP: mkvpropedit v94.0 ('Initiate') 64-bit
        _STATISTICS_WRITING_DATE_UTC: 2026-04-09 08:52:37
        encoder         : Lavc61.19.100 pcm_s16le
frame=  124 fps=0.0 q=-0.0 size=N/A time=00:00:05.17 bitrate=N/A speed=10.3x    frame=  321 fps=312 q=-0.0 size=N/A time=00:00:13.38 bitrate=N/A speed=  13x    frame=  518 fps=336 q=-0.0 size=N/A time=00:00:21.60 bitrate=N/A speed=  14x    frame=  713 fps=348 q=-0.0 size=N/A time=00:00:29.73 bitrate=N/A speed=14.5x    frame=  902 fps=350 q=-0.0 size=N/A time=00:00:37.62 bitrate=N/A speed=14.6x    frame= 1043 fps=338 q=-0.0 size=N/A time=00:00:43.50 bitrate=N/A speed=14.1x    frame= 1212 fps=337 q=-0.0 size=N/A time=00:00:50.55 bitrate=N/A speed=  14x    frame= 1373 fps=334 q=-0.0 size=N/A time=00:00:57.26 bitrate=N/A speed=13.9x    frame= 1534 fps=331 q=-0.0 size=N/A time=00:01:03.98 bitrate=N/A speed=13.8x    frame= 1674 fps=325 q=-0.0 size=N/A time=00:01:09.81 bitrate=N/A speed=13.6x    frame= 1845 fps=326 q=-0.0 size=N/A time=00:01:16.95 bitrate=N/A speed=13.6x    frame= 2011 fps=326 q=-0.0 size=N/A time=00:01:23.87 bitrate=N/A speed=13.6x    frame= 2122 fps=317 q=-0.0 size=N/A time=00:01:28.50 bitrate=N/A speed=13.2x    frame= 2268 fps=314 q=-0.0 size=N/A time=00:01:34.59 bitrate=N/A speed=13.1x    frame= 2417 fps=313 q=-0.0 size=N/A time=00:01:40.80 bitrate=N/A speed=  13x    frame= 2549 fps=309 q=-0.0 size=N/A time=00:01:46.31 bitrate=N/A speed=12.9x    frame= 2722 fps=311 q=-0.0 size=N/A time=00:01:53.53 bitrate=N/A speed=  13x    frame= 2894 fps=312 q=-0.0 size=N/A time=00:02:00.70 bitrate=N/A speed=  13x    frame= 3072 fps=314 q=-0.0 size=N/A time=00:02:08.12 bitrate=N/A speed=13.1x    frame= 3262 fps=317 q=-0.0 size=N/A time=00:02:16.05 bitrate=N/A speed=13.2x    frame= 3460 fps=320 q=-0.0 size=N/A time=00:02:24.31 bitrate=N/A speed=13.3x    frame= 3656 fps=322 q=-0.0 size=N/A time=00:02:32.48 bitrate=N/A speed=13.4x    frame= 3851 fps=325 q=-0.0 size=N/A time=00:02:40.61 bitrate=N/A speed=13.6x    frame= 4037 fps=327 q=-0.0 size=N/A time=00:02:48.37 bitrate=N/A speed=13.6x    frame= 4241 fps=329 q=-0.0 size=N/A time=00:02:56.88 bitrate=N/A speed=13.7x    frame= 4428 fps=330 q=-0.0 size=N/A time=00:03:04.68 bitrate=N/A speed=13.8x    frame= 4619 fps=332 q=-0.0 size=N/A time=00:03:12.65 bitrate=N/A speed=13.8x    frame= 4804 fps=333 q=-0.0 size=N/A time=00:03:20.36 bitrate=N/A speed=13.9x    frame= 5004 fps=335 q=-0.0 size=N/A time=00:03:28.70 bitrate=N/A speed=  14x    frame= 5190 fps=336 q=-0.0 size=N/A time=00:03:36.46 bitrate=N/A speed=  14x    frame= 5377 fps=337 q=-0.0 size=N/A time=00:03:44.26 bitrate=N/A speed=  14x    frame= 5567 fps=338 q=-0.0 size=N/A time=00:03:52.19 bitrate=N/A speed=14.1x    frame= 5764 fps=339 q=-0.0 size=N/A time=00:04:00.40 bitrate=N/A speed=14.1x    frame= 5953 fps=340 q=-0.0 size=N/A time=00:04:08.28 bitrate=N/A speed=14.2x    frame= 6142 fps=341 q=-0.0 size=N/A time=00:04:16.17 bitrate=N/A speed=14.2x    frame= 6334 fps=341 q=-0.0 size=N/A time=00:04:24.18 bitrate=N/A speed=14.2x    frame= 6527 fps=342 q=-0.0 size=N/A time=00:04:32.23 bitrate=N/A speed=14.3x    frame= 6712 fps=343 q=-0.0 size=N/A time=00:04:39.94 bitrate=N/A speed=14.3x    frame= 6899 fps=343 q=-0.0 size=N/A time=00:04:47.74 bitrate=N/A speed=14.3x    frame= 7090 fps=344 q=-0.0 size=N/A time=00:04:55.71 bitrate=N/A speed=14.3x    frame= 7277 fps=344 q=-0.0 size=N/A time=00:05:03.51 bitrate=N/A speed=14.4x    frame= 7465 fps=345 q=-0.0 size=N/A time=00:05:11.35 bitrate=N/A speed=14.4x    frame= 7642 fps=345 q=-0.0 size=N/A time=00:05:18.73 bitrate=N/A speed=14.4x    frame= 7831 fps=345 q=-0.0 size=N/A time=00:05:26.61 bitrate=N/A speed=14.4x    frame= 8020 fps=346 q=-0.0 size=N/A time=00:05:34.50 bitrate=N/A speed=14.4x    frame= 8201 fps=346 q=-0.0 size=N/A time=00:05:42.05 bitrate=N/A speed=14.4x    frame= 8386 fps=346 q=-0.0 size=N/A time=00:05:49.76 bitrate=N/A speed=14.4x    frame= 8579 fps=347 q=-0.0 size=N/A time=00:05:57.81 bitrate=N/A speed=14.5x    frame= 8757 fps=347 q=-0.0 size=N/A time=00:06:05.23 bitrate=N/A speed=14.5x    frame= 8939 fps=347 q=-0.0 size=N/A time=00:06:12.83 bitrate=N/A speed=14.5x    frame= 9125 fps=347 q=-0.0 size=N/A time=00:06:20.58 bitrate=N/A speed=14.5x    frame= 9308 fps=347 q=-0.0 size=N/A time=00:06:28.22 bitrate=N/A speed=14.5x    frame= 9498 fps=348 q=-0.0 size=N/A time=00:06:36.14 bitrate=N/A speed=14.5x    frame= 9682 fps=348 q=-0.0 size=N/A time=00:06:43.82 bitrate=N/A speed=14.5x    frame= 9870 fps=348 q=-0.0 size=N/A time=00:06:51.66 bitrate=N/A speed=14.5x    frame=10059 fps=348 q=-0.0 size=N/A time=00:06:59.54 bitrate=N/A speed=14.5x    frame=10245 fps=349 q=-0.0 size=N/A time=00:07:07.30 bitrate=N/A speed=14.5x    frame=10430 fps=349 q=-0.0 size=N/A time=00:07:15.01 bitrate=N/A speed=14.6x    frame=10625 fps=349 q=-0.0 size=N/A time=00:07:23.15 bitrate=N/A speed=14.6x    frame=10805 fps=349 q=-0.0 size=N/A time=00:07:30.65 bitrate=N/A speed=14.6x    frame=10995 fps=350 q=-0.0 size=N/A time=00:07:38.58 bitrate=N/A speed=14.6x    frame=11175 fps=350 q=-0.0 size=N/A time=00:07:46.09 bitrate=N/A speed=14.6x    frame=11371 fps=350 q=-0.0 size=N/A time=00:07:54.26 bitrate=N/A speed=14.6x    frame=11562 fps=350 q=-0.0 size=N/A time=00:08:02.23 bitrate=N/A speed=14.6x    frame=11754 fps=351 q=-0.0 size=N/A time=00:08:10.23 bitrate=N/A speed=14.6x    frame=11950 fps=351 q=-0.0 size=N/A time=00:08:18.41 bitrate=N/A speed=14.7x    frame=12154 fps=352 q=-0.0 size=N/A time=00:08:26.92 bitrate=N/A speed=14.7x    frame=12341 fps=352 q=-0.0 size=N/A time=00:08:34.72 bitrate=N/A speed=14.7x    frame=12535 fps=352 q=-0.0 size=N/A time=00:08:42.81 bitrate=N/A speed=14.7x    frame=12721 fps=353 q=-0.0 size=N/A time=00:08:50.57 bitrate=N/A speed=14.7x    frame=12924 fps=353 q=-0.0 size=N/A time=00:08:59.03 bitrate=N/A speed=14.7x    frame=13112 fps=353 q=-0.0 size=N/A time=00:09:06.87 bitrate=N/A speed=14.7x    frame=13296 fps=353 q=-0.0 size=N/A time=00:09:14.55 bitrate=N/A speed=14.7x    frame=13479 fps=353 q=-0.0 size=N/A time=00:09:22.18 bitrate=N/A speed=14.7x    frame=13670 fps=354 q=-0.0 size=N/A time=00:09:30.15 bitrate=N/A speed=14.7x    frame=13851 fps=354 q=-0.0 size=N/A time=00:09:37.70 bitrate=N/A speed=14.7x    frame=14038 fps=354 q=-0.0 size=N/A time=00:09:45.50 bitrate=N/A speed=14.8x    frame=14203 fps=353 q=-0.0 size=N/A time=00:09:52.38 bitrate=N/A speed=14.7x    frame=14375 fps=353 q=-0.0 size=N/A time=00:09:59.55 bitrate=N/A speed=14.7x    frame=14562 fps=353 q=-0.0 size=N/A time=00:10:07.35 bitrate=N/A speed=14.7x    frame=14742 fps=353 q=-0.0 size=N/A time=00:10:14.86 bitrate=N/A speed=14.7x    frame=14924 fps=353 q=-0.0 size=N/A time=00:10:22.45 bitrate=N/A speed=14.7x    frame=15100 fps=353 q=-0.0 size=N/A time=00:10:29.79 bitrate=N/A speed=14.7x    frame=15260 fps=352 q=-0.0 size=N/A time=00:10:36.46 bitrate=N/A speed=14.7x    frame=15452 fps=353 q=-0.0 size=N/A time=00:10:44.47 bitrate=N/A speed=14.7x    frame=15632 fps=353 q=-0.0 size=N/A time=00:10:51.98 bitrate=N/A speed=14.7x    frame=15824 fps=353 q=-0.0 size=N/A time=00:10:59.99 bitrate=N/A speed=14.7x    frame=16004 fps=353 q=-0.0 size=N/A time=00:11:07.50 bitrate=N/A speed=14.7x    frame=16192 fps=353 q=-0.0 size=N/A time=00:11:15.34 bitrate=N/A speed=14.7x    frame=16376 fps=353 q=-0.0 size=N/A time=00:11:23.01 bitrate=N/A speed=14.7x    frame=16560 fps=353 q=-0.0 size=N/A time=00:11:30.69 bitrate=N/A speed=14.7x    frame=16751 fps=353 q=-0.0 size=N/A time=00:11:38.65 bitrate=N/A speed=14.7x    frame=16948 fps=353 q=-0.0 size=N/A time=00:11:46.87 bitrate=N/A speed=14.7x    frame=17130 fps=353 q=-0.0 size=N/A time=00:11:54.46 bitrate=N/A speed=14.7x    frame=17316 fps=353 q=-0.0 size=N/A time=00:12:02.22 bitrate=N/A speed=14.7x    frame=17506 fps=354 q=-0.0 size=N/A time=00:12:10.14 bitrate=N/A speed=14.7x    frame=17687 fps=354 q=-0.0 size=N/A time=00:12:17.69 bitrate=N/A speed=14.7x    frame=17878 fps=354 q=-0.0 size=N/A time=00:12:25.66 bitrate=N/A speed=14.8x    frame=18064 fps=354 q=-0.0 size=N/A time=00:12:33.41 bitrate=N/A speed=14.8x    frame=18240 fps=354 q=-0.0 size=N/A time=00:12:40.76 bitrate=N/A speed=14.8x    frame=18433 fps=354 q=-0.0 size=N/A time=00:12:48.80 bitrate=N/A speed=14.8x    frame=18627 fps=354 q=-0.0 size=N/A time=00:12:56.90 bitrate=N/A speed=14.8x    frame=18809 fps=354 q=-0.0 size=N/A time=00:13:04.49 bitrate=N/A speed=14.8x    frame=18997 fps=354 q=-0.0 size=N/A time=00:13:12.33 bitrate=N/A speed=14.8x    frame=19194 fps=354 q=-0.0 size=N/A time=00:13:20.54 bitrate=N/A speed=14.8x    frame=19386 fps=355 q=-0.0 size=N/A time=00:13:28.55 bitrate=N/A speed=14.8x    frame=19573 fps=355 q=-0.0 size=N/A time=00:13:36.35 bitrate=N/A speed=14.8x    frame=19760 fps=355 q=-0.0 size=N/A time=00:13:44.15 bitrate=N/A speed=14.8x    frame=19942 fps=355 q=-0.0 size=N/A time=00:13:51.74 bitrate=N/A speed=14.8x    frame=20127 fps=355 q=-0.0 size=N/A time=00:13:59.46 bitrate=N/A speed=14.8x    frame=20318 fps=355 q=-0.0 size=N/A time=00:14:07.42 bitrate=N/A speed=14.8x    frame=20485 fps=355 q=-0.0 size=N/A time=00:14:14.39 bitrate=N/A speed=14.8x    frame=20644 fps=354 q=-0.0 size=N/A time=00:14:21.02 bitrate=N/A speed=14.8x    frame=20832 fps=354 q=-0.0 size=N/A time=00:14:28.86 bitrate=N/A speed=14.8x    frame=21012 fps=354 q=-0.0 size=N/A time=00:14:36.37 bitrate=N/A speed=14.8x    frame=21204 fps=354 q=-0.0 size=N/A time=00:14:44.38 bitrate=N/A speed=14.8x    frame=21390 fps=354 q=-0.0 size=N/A time=00:14:52.14 bitrate=N/A speed=14.8x    frame=21575 fps=355 q=-0.0 size=N/A time=00:14:59.85 bitrate=N/A speed=14.8x    frame=21759 fps=355 q=-0.0 size=N/A time=00:15:07.53 bitrate=N/A speed=14.8x    frame=21947 fps=355 q=-0.0 size=N/A time=00:15:15.37 bitrate=N/A speed=14.8x    frame=22133 fps=355 q=-0.0 size=N/A time=00:15:23.13 bitrate=N/A speed=14.8x    frame=22326 fps=355 q=-0.0 size=N/A time=00:15:31.18 bitrate=N/A speed=14.8x    frame=22522 fps=355 q=-0.0 size=N/A time=00:15:39.35 bitrate=N/A speed=14.8x    frame=22717 fps=355 q=-0.0 size=N/A time=00:15:47.48 bitrate=N/A speed=14.8x    frame=22895 fps=355 q=-0.0 size=N/A time=00:15:54.91 bitrate=N/A speed=14.8x    frame=23083 fps=355 q=-0.0 size=N/A time=00:16:02.75 bitrate=N/A speed=14.8x    frame=23270 fps=355 q=-0.0 size=N/A time=00:16:10.55 bitrate=N/A speed=14.8x    frame=23459 fps=355 q=-0.0 size=N/A time=00:16:18.43 bitrate=N/A speed=14.8x    frame=23658 fps=356 q=-0.0 size=N/A time=00:16:26.73 bitrate=N/A speed=14.8x    frame=23853 fps=356 q=-0.0 size=N/A time=00:16:34.86 bitrate=N/A speed=14.8x    frame=24053 fps=356 q=-0.0 size=N/A time=00:16:43.21 bitrate=N/A speed=14.9x    frame=24241 fps=356 q=-0.0 size=N/A time=00:16:51.05 bitrate=N/A speed=14.9x    frame=24429 fps=356 q=-0.0 size=N/A time=00:16:58.89 bitrate=N/A speed=14.9x    frame=24619 fps=356 q=-0.0 size=N/A time=00:17:06.81 bitrate=N/A speed=14.9x    frame=24822 fps=357 q=-0.0 size=N/A time=00:17:15.28 bitrate=N/A speed=14.9x    frame=25008 fps=357 q=-0.0 size=N/A time=00:17:23.04 bitrate=N/A speed=14.9x    frame=25202 fps=357 q=-0.0 size=N/A time=00:17:31.13 bitrate=N/A speed=14.9x    frame=25394 fps=357 q=-0.0 size=N/A time=00:17:39.14 bitrate=N/A speed=14.9x    frame=25589 fps=357 q=-0.0 size=N/A time=00:17:47.27 bitrate=N/A speed=14.9x    frame=25778 fps=357 q=-0.0 size=N/A time=00:17:55.15 bitrate=N/A speed=14.9x    frame=25968 fps=357 q=-0.0 size=N/A time=00:18:03.08 bitrate=N/A speed=14.9x    frame=26160 fps=357 q=-0.0 size=N/A time=00:18:11.09 bitrate=N/A speed=14.9x    frame=26347 fps=357 q=-0.0 size=N/A time=00:18:18.88 bitrate=N/A speed=14.9x    frame=26537 fps=357 q=-0.0 size=N/A time=00:18:26.81 bitrate=N/A speed=14.9x    frame=26727 fps=357 q=-0.0 size=N/A time=00:18:34.73 bitrate=N/A speed=14.9x    frame=26911 fps=357 q=-0.0 size=N/A time=00:18:42.41 bitrate=N/A speed=14.9x    frame=27088 fps=357 q=-0.0 size=N/A time=00:18:49.79 bitrate=N/A speed=14.9x    frame=27271 fps=357 q=-0.0 size=N/A time=00:18:57.42 bitrate=N/A speed=14.9x    frame=27452 fps=357 q=-0.0 size=N/A time=00:19:04.97 bitrate=N/A speed=14.9x    frame=27644 fps=357 q=-0.0 size=N/A time=00:19:12.98 bitrate=N/A speed=14.9x    frame=27824 fps=357 q=-0.0 size=N/A time=00:19:20.49 bitrate=N/A speed=14.9x    frame=28005 fps=357 q=-0.0 size=N/A time=00:19:28.04 bitrate=N/A speed=14.9x    frame=28189 fps=357 q=-0.0 size=N/A time=00:19:35.71 bitrate=N/A speed=14.9x    frame=28385 fps=357 q=-0.0 size=N/A time=00:19:43.89 bitrate=N/A speed=14.9x    frame=28574 fps=357 q=-0.0 size=N/A time=00:19:51.77 bitrate=N/A speed=14.9x    frame=28748 fps=357 q=-0.0 size=N/A time=00:19:59.03 bitrate=N/A speed=14.9x    frame=28922 fps=357 q=-0.0 size=N/A time=00:20:06.28 bitrate=N/A speed=14.9x    frame=29090 fps=357 q=-0.0 size=N/A time=00:20:13.29 bitrate=N/A speed=14.9x    frame=29268 fps=357 q=-0.0 size=N/A time=00:20:20.71 bitrate=N/A speed=14.9x    frame=29447 fps=357 q=-0.0 size=N/A time=00:20:28.18 bitrate=N/A speed=14.9x    frame=29608 fps=357 q=-0.0 size=N/A time=00:20:34.90 bitrate=N/A speed=14.9x    frame=29778 fps=356 q=-0.0 size=N/A time=00:20:41.99 bitrate=N/A speed=14.9x    frame=29946 fps=356 q=-0.0 size=N/A time=00:20:48.99 bitrate=N/A speed=14.9x    frame=30109 fps=356 q=-0.0 size=N/A time=00:20:55.79 bitrate=N/A speed=14.8x    frame=30285 fps=356 q=-0.0 size=N/A time=00:21:03.13 bitrate=N/A speed=14.8x    frame=30472 fps=356 q=-0.0 size=N/A time=00:21:10.93 bitrate=N/A speed=14.8x    frame=30651 fps=356 q=-0.0 size=N/A time=00:21:18.40 bitrate=N/A speed=14.8x    frame=30843 fps=356 q=-0.0 size=N/A time=00:21:26.41 bitrate=N/A speed=14.8x    frame=31034 fps=356 q=-0.0 size=N/A time=00:21:34.37 bitrate=N/A speed=14.9x    frame=31224 fps=356 q=-0.0 size=N/A time=00:21:42.30 bitrate=N/A speed=14.9x    frame=31400 fps=356 q=-0.0 size=N/A time=00:21:49.64 bitrate=N/A speed=14.9x    frame=31586 fps=356 q=-0.0 size=N/A time=00:21:57.39 bitrate=N/A speed=14.9x    frame=31774 fps=356 q=-0.0 size=N/A time=00:22:05.24 bitrate=N/A speed=14.9x    frame=31943 fps=356 q=-0.0 size=N/A time=00:22:12.28 bitrate=N/A speed=14.8x    frame=32122 fps=356 q=-0.0 size=N/A time=00:22:19.75 bitrate=N/A speed=14.8x    frame=32314 fps=356 q=-0.0 size=N/A time=00:22:27.76 bitrate=N/A speed=14.8x    frame=32500 fps=356 q=-0.0 size=N/A time=00:22:35.52 bitrate=N/A speed=14.8x    frame=32658 fps=356 q=-0.0 size=N/A time=00:22:42.11 bitrate=N/A speed=14.8x    frame=32811 fps=355 q=-0.0 size=N/A time=00:22:48.49 bitrate=N/A speed=14.8x    frame=32982 fps=355 q=-0.0 size=N/A time=00:22:55.62 bitrate=N/A speed=14.8x    frame=33140 fps=355 q=-0.0 size=N/A time=00:23:02.21 bitrate=N/A speed=14.8x    frame=33313 fps=355 q=-0.0 size=N/A time=00:23:09.42 bitrate=N/A speed=14.8x    frame=33476 fps=355 q=-0.0 size=N/A time=00:23:16.22 bitrate=N/A speed=14.8x    frame=33630 fps=354 q=-0.0 size=N/A time=00:23:22.65 bitrate=N/A speed=14.8x    frame=33762 fps=354 q=-0.0 size=N/A time=00:23:28.15 bitrate=N/A speed=14.8x    frame=33880 fps=353 q=-0.0 size=N/A time=00:23:33.07 bitrate=N/A speed=14.7x    frame=34031 fps=353 q=-0.0 size=N/A time=00:23:39.37 bitrate=N/A speed=14.7x    frame=34192 fps=353 q=-0.0 size=N/A time=00:23:46.09 bitrate=N/A speed=14.7x    frame=34329 fps=352 q=-0.0 size=N/A time=00:23:51.80 bitrate=N/A speed=14.7x    frame=34462 fps=352 q=-0.0 size=N/A time=00:23:57.35 bitrate=N/A speed=14.7x    frame=34642 fps=352 q=-0.0 size=N/A time=00:24:04.86 bitrate=N/A speed=14.7x    [Parsed_psnr_16 @ 0000021f26d4fb80] PSNR y:48.908965 u:50.341832 v:50.391253 average:49.342629 min:37.949886 max:inf
[out#0/null @ 0000021f1a3ddec0] video:14903KiB audio:271276KiB subtitle:0KiB other streams:0KiB global headers:0KiB muxing overhead: unknown
frame=34683 fps=352 q=-0.0 Lsize=N/A time=00:24:06.57 bitrate=N/A speed=14.7x    
